<svg width="129" height="129" viewBox="0 0 129 129" fill="none" xmlns="http://www.w3.org/2000/svg">
    <path
        d="M60.9136 39.3141H65.2407C66.5133 39.3141 67.3405 39.507 67.786 39.8286C68.2314 40.1501 68.4859 40.7289 68.5496 41.5649V42.0151C69.695 40.8575 70.9676 39.9572 72.3675 39.3784C73.7675 38.7996 75.1037 38.4781 76.44 38.4781C78.0945 38.4781 79.4308 38.9926 80.5762 39.9572C81.7215 40.9862 82.2942 42.5296 82.2942 44.6518V62.0797H77.9672C76.6309 62.0797 75.7401 61.8225 75.2946 61.308C74.8492 60.7935 74.6583 59.9575 74.6583 58.7356V45.7451C74.6583 44.5875 74.4038 43.6229 73.8311 42.9155C73.2584 42.208 72.6221 41.8865 71.7948 41.8865C70.7131 41.8865 69.6313 42.4653 68.4859 43.5585V62.0797H64.2225C62.8862 62.0797 61.9954 61.8225 61.55 61.308C61.1045 60.7935 60.9136 59.9575 60.9136 58.7356V39.3141ZM48.7598 58.7356V39.3141H53.2141C54.4231 39.3141 55.2503 39.507 55.6321 39.8286C56.0139 40.1501 56.2048 40.7289 56.2684 41.5649C56.2684 48.3818 56.3321 55.2629 56.3321 62.0797H52.0687C50.7324 62.0797 49.8415 61.8225 49.3961 61.308C48.9507 60.7935 48.7598 59.9575 48.7598 58.7356ZM52.5141 27.9956C53.6595 27.9956 54.6776 28.3815 55.5048 29.2175C56.3321 30.0535 56.7139 31.0182 56.7139 32.24C56.7139 33.3976 56.3321 34.3623 55.5048 35.1983C54.6776 36.0343 53.7231 36.4202 52.5141 36.4202C51.3687 36.4202 50.3506 36.0343 49.5234 35.1983C48.7598 34.4266 48.3143 33.3976 48.3143 32.24C48.3143 31.0825 48.7598 30.0535 49.587 29.2175C50.4142 28.3815 51.3687 27.9956 52.5141 27.9956Z"
        fill="#006073" />
    <path
        d="M30.8546 79.3575C31.7444 78.394 32.38 77.1735 32.825 75.5676C33.2699 73.9617 33.5241 72.3557 33.5241 70.6214C33.5241 68.887 33.3335 67.2811 32.825 65.6752C31.6173 61.4998 26.7232 60.4078 25.5791 61.2428V61.6925V80.0641C26.2783 80.578 27.041 80.835 27.8673 80.835C28.3758 80.835 28.8207 80.7065 29.3292 80.5138C29.8376 80.3211 30.3461 79.9356 30.8546 79.3575ZM41.9777 70.6856C42.0412 72.8696 41.7234 74.7967 41.2149 76.4026C40.7065 78.0086 39.9437 79.2933 39.0539 80.3211C38.164 81.3488 37.0835 82.1197 35.8759 82.6336C34.6682 83.1475 33.4606 83.4044 32.1258 83.4044C29.9012 83.4044 27.6766 82.762 25.5155 81.4773V98.1146C25.5155 98.9496 25.1977 99.5278 24.7528 99.9132C24.3079 100.299 23.418 100.491 22.0833 100.491H17.5069V58.2237C29.0749 58.4807 41.4692 56.939 41.9777 70.6856ZM52.1473 78.394H59.3296C59.3932 77.3662 59.3296 76.3384 59.2025 75.2464C59.0754 74.1544 58.8211 73.1908 58.5033 72.2915C58.1855 71.3922 57.8042 70.6856 57.3592 70.1075C56.9143 69.5293 56.4058 69.2724 55.7702 69.2724C55.1982 69.2724 54.6262 69.5293 54.1812 70.1075C53.7363 70.6856 53.355 71.3922 53.0372 72.2915C52.7193 73.1908 52.5287 74.1544 52.338 75.2464C52.2109 76.3384 52.1473 77.3662 52.1473 78.394ZM69.8806 88.8645V85.9739C70.4527 85.1388 71.0883 84.3037 71.7239 83.4686C72.3595 82.6336 72.9951 81.7343 73.5671 80.835C74.2027 79.9999 74.9019 79.5502 75.6011 79.5502C76.046 79.5502 76.3638 79.6787 76.6816 79.9356C76.9994 80.1926 77.1901 80.578 77.3172 80.9634V92.269H73.1858C71.851 92.269 70.9612 92.0121 70.5162 91.4982C70.1349 90.9843 69.8806 90.1492 69.8806 88.8645ZM55.7067 68.3731C59.1389 68.3731 61.7449 69.3366 63.5246 71.1995C65.3043 73.1266 66.1941 75.8887 66.1941 79.6145H52.1473C52.2109 80.7707 52.4015 81.8627 52.7829 82.9548C53.1007 83.9825 53.6092 84.9461 54.2448 85.7169C54.8804 86.4878 55.7067 87.1301 56.6601 87.644C57.6135 88.0937 58.694 88.3506 59.9017 88.3506C60.9822 88.3506 61.9356 88.1579 62.9526 87.7083C63.9695 87.2586 64.7958 86.7447 65.6221 86.1023C66.4484 85.46 67.2111 84.6891 67.9738 83.8541C68.673 83.019 69.3721 82.1839 69.9442 81.3488V69.3366H74.3934C75.4739 69.3366 76.1731 69.4651 76.618 69.7221C77.0629 69.979 77.3172 70.4287 77.3807 71.0068V71.9061C78.3977 70.8141 79.4782 69.9148 80.7494 69.0797C82.0207 68.2446 83.3554 67.8592 84.7537 67.8592C85.7072 67.8592 86.6606 68.1161 87.4868 68.5658C88.3767 69.0155 88.9487 69.7863 89.3301 70.7498C89.6479 71.5849 89.7114 72.3557 89.5843 73.0623C89.4572 73.7689 89.203 74.4113 88.8216 74.9252C88.4402 75.4391 87.9318 75.8887 87.2962 76.2099C86.6606 76.5311 86.025 76.6596 85.3893 76.6596C84.6902 76.6596 84.0546 76.4669 83.419 76.1457C82.7834 75.8245 82.2113 75.1821 81.7664 74.4113C82.4656 74.1544 82.9105 73.7689 83.1012 73.1266C83.2919 72.5485 83.2283 72.0346 82.9741 71.7776C82.5927 71.328 82.2113 71.1353 81.83 71.1353C81.2579 71.1353 80.5588 71.4564 79.8596 72.0988C79.1604 72.7412 78.3342 73.5762 77.4443 74.604C76.3638 75.8887 75.2197 77.3662 74.012 79.0363C72.7408 80.7065 71.4061 82.3766 69.9442 84.111C69.0543 85.1388 68.1009 86.1666 67.1475 87.2586C66.1306 88.2864 65.05 89.2499 63.906 90.085C62.7619 90.9201 61.5542 91.6267 60.2195 92.1406C58.9483 92.6545 57.5499 92.9114 56.088 92.9114C54.6897 92.9114 53.2914 92.6545 51.8931 92.2048C50.4947 91.7551 49.2871 90.9843 48.2066 90.0208C47.126 89.0572 46.2998 87.8367 45.6006 86.2951C44.965 84.8176 44.5836 82.9548 44.5836 80.8992C44.5836 78.8436 44.9014 77.045 45.537 75.4391C46.1726 73.8974 46.9989 72.6127 48.0159 71.5849C49.0329 70.5571 50.2405 69.7863 51.5117 69.2724C52.91 68.63 54.2448 68.3731 55.7067 68.3731ZM109.352 66.2533L101.851 70.2359L105.157 62.3349C109.097 53.0848 118.123 61.564 109.352 66.2533ZM91.6818 86.9374V69.4009H96.0039C97.3387 69.4009 98.2285 69.6578 98.6734 70.1717C99.1184 70.6856 99.3091 71.5207 99.3091 72.7412V85.7812C99.3091 86.9374 99.5633 87.901 100.135 88.5433C100.707 89.1857 101.343 89.5711 102.169 89.5711C102.678 89.5711 103.186 89.4426 103.758 89.1857C104.33 88.9287 104.902 88.4791 105.474 87.901V74.7967C105.474 71.0068 111.703 67.538 113.102 70.6214C113.102 78.7794 113.102 84.0468 113.102 92.2048H108.78C107.508 92.2048 106.682 92.0121 106.237 91.6267C105.792 91.2413 105.474 90.7274 105.474 89.9565V89.5069C104.33 90.6631 103.059 91.5624 101.661 92.1406C100.262 92.7187 98.9277 93.0399 97.6565 93.0399C96.0039 93.0399 94.6056 92.526 93.4615 91.5624C92.2539 90.5989 91.6818 89.0572 91.6818 86.9374Z"
        fill="#C9252B" />
</svg>
    